<svg width="2160" height="2112" viewBox="0 0 2160 2112" version="1.1" xmlns="http://www.w3.org/2000/svg" xmlns:xlink="http://www.w3.org/1999/xlink" xmlns:figma="http://www.figma.com/figma/ns">
<title>googleplus</title>
<desc>Created using Figma</desc>
<g id="Canvas" transform="matrix(3 0 0 3 3927 6213)" figma:type="canvas">
<g id="googleplus" figma:type="frame">
<g id="Group" figma:type="frame">
<g id="Vector" figma:type="vector">
<use xlink:href="#path0_fill" transform="translate(-1309 -2071)" fill="#DC4A38"/>
</g>
<g id="Group" figma:type="frame">
<g id="Vector" figma:type="vector">
<use xlink:href="#path1_fill" transform="translate(-1179.41 -1961.23)" fill="#FFFFFF"/>
</g>
<g id="Vector" figma:type="vector">
<use xlink:href="#path2_fill" transform="translate(-866.099 -1821.43)" fill="#FFFFFF"/>
</g>
</g>
</g>
</g>
</g>
<defs>
<path id="path0_fill" d="M 697.53 1.17495e-06L 22.4695 1.17495e-06C 10.0543 1.17495e-06 -2.17549e-08 10.0558 -2.17549e-08 22.4617L -2.17549e-08 681.516C -2.17549e-08 693.944 10.0543 704 22.4695 704L 697.53 704C 709.946 704 720 693.938 720 681.516L 720 22.4674C 720 10.0558 709.94 1.17495e-06 697.53 1.17495e-06Z"/>
<path id="path1_fill" d="M 248.374 276.584L 225.659 258.942C 218.741 253.204 209.28 245.629 209.28 231.763C 209.28 217.84 218.741 208.988 226.954 200.792C 253.415 179.961 279.854 157.791 279.854 111.071C 279.854 63.0272 249.628 37.7536 235.143 25.7642L 274.202 25.7642L 315.201 5.22201e-07L 190.997 5.22201e-07C 156.916 5.22201e-07 107.802 8.0652 71.8455 37.7536C 44.7452 61.1393 31.5258 93.383 31.5258 122.41C 31.5258 171.685 69.3533 221.633 136.152 221.633C 142.459 221.633 149.36 221.012 156.306 220.367C 153.186 227.959 150.033 234.279 150.033 245.008C 150.033 264.577 160.087 276.578 168.949 287.946C 140.566 289.897 87.5798 293.04 48.5205 317.053C 11.3203 339.178 2.61059e-07 371.382 2.61059e-07 394.111C 2.61059e-07 440.894 44.0893 484.471 135.513 484.471C 243.926 484.471 301.32 424.473 301.32 365.079C 301.325 321.439 276.119 299.958 248.374 276.584ZM 165.801 203.929C 111.566 203.929 86.9981 133.806 86.9981 91.495C 86.9981 75.0224 90.1176 58.0136 100.845 44.7294C 110.956 32.0783 128.567 23.8705 145.008 23.8705C 197.293 23.8705 224.41 94.6207 224.41 140.126C 224.41 151.511 223.155 171.685 208.659 186.27C 198.519 196.388 181.553 203.929 165.801 203.929ZM 166.423 457.994C 98.98 457.994 55.4895 425.728 55.4895 380.861C 55.4895 336.006 95.8148 320.834 109.69 315.809C 136.152 306.906 170.204 305.662 175.884 305.662C 182.186 305.662 185.339 305.662 190.358 306.295C 238.302 340.421 259.112 357.43 259.112 389.736C 259.112 428.859 226.954 457.994 166.423 457.994Z"/>
<path id="path2_fill" d="M 94.2522 63.1698L 94.2522 -5.91827e-06L 63.0572 -5.91827e-06L 63.0572 63.1698L -1.53155e-05 63.1698L -1.53155e-05 94.7177L 63.0572 94.7177L 63.0572 158.275L 94.2522 158.275L 94.2522 94.7177L 157.629 94.7177L 157.629 63.1698L 94.2522 63.1698Z"/>
</defs>
</svg>
