<svg width="2160" height="2160" viewBox="0 0 2160 2160" version="1.1" xmlns="http://www.w3.org/2000/svg" xmlns:xlink="http://www.w3.org/1999/xlink" xmlns:figma="http://www.figma.com/figma/ns">
<title>zomato</title>
<desc>Created using Figma</desc>
<g id="Canvas" transform="matrix(3 0 0 3 3927 6213)" figma:type="canvas">
<g id="zomato" figma:type="frame">
<g id="Page-1" figma:type="frame">
<g id="zomato logo" figma:type="frame">
<g id="Logo" figma:type="frame">
<g id="Rectangle" figma:type="vector">
<use xlink:href="#path0_fill" transform="translate(-1309 -2071)" fill="#CB202D"/>
</g>
<g id="Shape" figma:type="vector">
<use xlink:href="#path1_fill" transform="translate(-1243 -1776)" fill="#FFFFFF"/>
</g>
</g>
</g>
</g>
</g>
</g>
<defs>
<path id="path0_fill" d="M 691.2 0L 28.8 0C 12.8942 0 0 12.8942 0 28.8L 0 691.2C 0 707.106 12.8942 720 28.8 720L 691.2 720C 707.106 720 720 707.106 720 691.2L 720 28.8C 720 12.8942 707.106 0 691.2 0Z"/>
<path id="path1_fill" fill-rule="evenodd" d="M 76.6163 111.912L 76.6163 96.0869L 24.8393 96.0869L 76.6163 37.5715L 76.6163 24.3014L 1.77389 24.3014L 1.7741 40.1298L 51.777 40.1298L -1.63574e-06 98.6452L -1.63574e-06 111.912L 76.6163 111.912ZM 133.457 113.83C 160.564 113.83 180.564 93.2089 180.564 68.2682L 180.564 67.9485C 180.564 42.8469 160.724 22.5433 133.787 22.5433C 106.691 22.5433 86.6845 43.3274 86.6845 68.2682L 86.6845 68.5878C 86.6845 93.5286 106.52 113.83 133.457 113.83ZM 133.787 97.0459C 117.655 97.0459 106.041 83.9356 106.041 68.2682L 106.041 67.9485C 106.041 52.4398 116.845 39.3296 133.457 39.3296C 149.589 39.3296 161.203 52.5996 161.203 68.2682L 161.203 68.5878C 161.203 84.0955 150.399 97.0459 133.787 97.0459ZM 197.729 111.912L 217.079 111.912L 217.079 62.5122C 217.079 48.7627 225.145 40.1298 236.759 40.1298C 248.374 40.1298 255.15 47.8037 255.15 61.713L 255.15 111.912L 274.66 111.912L 274.66 62.3524C 274.66 47.9635 282.886 40.1298 294.18 40.1298C 305.795 40.1298 312.731 47.8037 312.731 62.0327L 312.731 111.912L 332.092 111.912L 332.092 56.2768C 332.092 34.8533 320.307 22.5433 300.957 22.5433C 287.244 22.5433 278.048 28.7777 270.952 38.051C 266.274 28.7777 257.249 22.5433 244.346 22.5433C 230.633 22.5433 222.886 29.8975 217.079 37.8911L 217.079 24.3014L 197.729 24.3014L 197.729 111.912ZM 384.089 99.6042C 374.255 99.6042 366.348 94.6474 366.348 85.8546L 366.348 85.535C 366.348 76.2617 374.255 70.5058 387.638 70.5058C 396.023 70.5058 403.13 72.1051 408.447 74.0241L 408.447 80.4183C 408.447 91.7704 397.963 99.6042 384.089 99.6042ZM 378.932 113.67C 392.646 113.67 402.001 107.916 407.968 100.723L 407.968 111.912L 426.838 111.912L 426.838 59.794C 426.838 48.2832 423.929 39.1697 417.483 32.9354C 411.186 26.6999 401.351 23.1826 388.288 23.1826C 374.255 23.1826 364.74 26.0606 355.054 30.377L 360.222 45.4052C 368.288 42.0477 375.704 39.97 385.709 39.97C 400.221 39.97 408.128 46.8447 408.128 59.6342L 408.128 61.8729C 401.191 59.6342 393.935 58.1958 383.93 58.1958C 362.321 58.1958 347.318 67.469 347.318 86.3341L 347.318 86.6538C 347.318 104.24 362.321 113.67 378.932 113.67ZM 476.588 113.351C 484.004 113.351 489.491 111.752 494.488 109.035L 494.488 93.2089C 490.461 95.1279 486.422 96.2467 481.905 96.2467C 474.808 96.2467 470.621 92.8893 470.621 84.8957L 470.621 40.9289L 494.808 40.9289L 494.808 24.3014L 470.621 24.3014L 470.621 0L 451.26 0L 451.26 24.3014L 439.806 24.3014L 439.806 40.9289L 451.26 40.9289L 451.26 87.9335C 451.26 106.957 461.745 113.351 476.588 113.351ZM 596.271 68.2682L 596.271 67.9485C 596.271 42.8469 576.431 22.5433 549.494 22.5433C 522.398 22.5433 502.398 43.3274 502.398 68.2682L 502.398 68.5878C 502.398 93.5286 522.238 113.83 549.174 113.83C 576.271 113.83 596.271 93.2089 596.271 68.2682ZM 549.494 97.0459C 533.362 97.0459 521.748 83.9356 521.748 68.2682L 521.748 67.9485C 521.748 52.4398 532.563 39.3296 549.174 39.3296C 565.306 39.3296 576.91 52.5996 576.91 68.2682L 576.91 68.5878C 576.91 84.0955 566.106 97.0459 549.494 97.0459Z"/>
</defs>
</svg>
